#N canvas 0 0 2560 1566 10;
#X obj 226 130 inlet~;
#X obj 226 226 plugin~ pointerCastDistortion;
#X obj 226 178 loadbang;
#X msg 226 203 control #2 1;
#X obj 266 67 inlet;
#X msg 333 186 control #1 \$1;
#X text 381 165 frequencies passed to the effect (lp);
#X obj 397 251 outlet~;
#X obj 383 62 sel 0;
#X msg 349 90 10000;
#X obj 333 167 max 1;
#X obj 266 86 route bang;
#X msg 213 106 reset;
#X obj 383 43 init \$1;
#X text 96 205 Default to 100% wet;
#X connect 0 0 1 1;
#X connect 1 1 7 0;
#X connect 2 0 3 0;
#X connect 3 0 1 0;
#X connect 4 0 11 0;
#X connect 5 0 1 0;
#X connect 8 0 9 0;
#X connect 8 1 10 0;
#X connect 9 0 10 0;
#X connect 10 0 5 0;
#X connect 11 0 12 0;
#X connect 11 1 10 0;
#X connect 12 0 1 0;
#X connect 13 0 8 0;
