#N canvas 800 0 2560 1566 10;
#X obj 94 112 inlet~;
#X obj 176 52 inlet;
#X msg 124 160 control #1 \$1;
#X obj 235 253 outlet~;
#X obj 124 179 plugin~ sinusWavewrapper;
#X obj 176 117 min 10;
#X obj 176 136 max 0;
#X obj 212 71 sel 0;
#X msg 212 93 1;
#X obj 212 52 init \$1;
#X connect 0 0 4 1;
#X connect 1 0 5 0;
#X connect 2 0 4 0;
#X connect 4 1 3 0;
#X connect 5 0 6 0;
#X connect 6 0 2 0;
#X connect 7 0 8 0;
#X connect 7 1 5 0;
#X connect 8 0 5 0;
#X connect 9 0 7 0;
