#N canvas 0 0 2560 1566 12;
#X obj 258 322 plugin~ tap_reverb;
#X obj 271 181 inlet;
#X msg 271 248 control #1 \$1;
#X obj 401 181 inlet;
#X msg 401 248 control #2 \$1;
#X obj 514 181 inlet;
#X obj 624 181 inlet;
#X obj 624 204 clip 0 1;
#X msg 514 248 control #3 \$1;
#X msg 624 248 control #4 \$1;
#X msg 152 308 info;
#X obj 22 264 inlet~;
#X obj 84 264 inlet~;
#X obj 294 382 outlet~;
#X obj 352 382 outlet~;
#X obj 271 204 clip 0 10000;
#X text 413 160 dry level (dB);
#X text 518 158 wet level (dB);
#X text 266 158 decay time (ms);
#X obj 401 204 clip -70 10;
#X obj 514 204 clip -70 10;
#X text 636 160 comb filters;
#X obj 741 181 inlet;
#X obj 851 181 inlet;
#X obj 984 181 inlet;
#X obj 160 181 inlet;
#X msg 741 248 control #5 \$1;
#X msg 851 248 control #6 \$1;
#X msg 984 248 control #7 \$1;
#X msg 160 248 control #8 \$1;
#X obj 741 204 clip 0 1;
#X text 736 158 allpass filters;
#X text 863 160 bandpass filters;
#X text 988 159 enhanced stereo;
#X text 172 159 reverb type;
#X obj 851 204 clip 0 1;
#X obj 984 204 clip 0 1;
#X obj 160 204 clip 0 42.1;
#X obj 624 226 int;
#X obj 741 226 int;
#X obj 851 226 int;
#X obj 984 226 int;
#X obj 160 226 int;
#X obj 205 98 hsl 170 20 0 10000 0 0 empty empty empty -2 -10 0 12 #fcfcfc #000000 #000000 0 1;
#X floatatom 147 101 5 0 42 0 - - - 0;
#X obj 387 78 hsl 170 20 -70 10 0 0 empty empty empty -2 -10 0 12 #fcfcfc #000000 #000000 0 1;
#X obj 497 107 hsl 170 20 -70 10 0 0 empty empty empty -2 -10 0 12 #fcfcfc #000000 #000000 0 1;
#X obj 689 116 tgl 20 0 empty empty empty 0 -10 0 12 #fcfcfc #000000 #000000 0 1;
#X obj 762 102 tgl 20 0 empty empty empty 0 -10 0 12 #fcfcfc #000000 #000000 0 1;
#X obj 904 109 tgl 20 0 empty empty empty 0 -10 0 12 #fcfcfc #000000 #000000 0 1;
#X obj 1015 113 tgl 20 0 empty empty empty 0 -10 0 12 #fcfcfc #000000 #000000 0 1;
#X floatatom 396 108 5 0 0 0 - - - 0;
#X floatatom 505 132 5 0 0 0 - - - 0;
#X obj 126 27 init \$1;
#X obj 211 15 init \$2;
#X obj 211 40 sel 0;
#X msg 211 65 2500;
#X floatatom 202 123 5 0 0 0 - - - 0;
#X obj 381 5 init \$3;
#X obj 515 46 init \$4;
#X obj 778 39 init 1;
#X text 832 38 <-- FIX: need to actually parse the args in order to actually handle the enable/disable ones.;
#X connect 0 1 13 0;
#X connect 0 2 14 0;
#X connect 1 0 15 0;
#X connect 2 0 0 0;
#X connect 3 0 19 0;
#X connect 4 0 0 0;
#X connect 5 0 20 0;
#X connect 6 0 7 0;
#X connect 7 0 38 0;
#X connect 8 0 0 0;
#X connect 9 0 0 0;
#X connect 10 0 0 0;
#X connect 11 0 0 1;
#X connect 12 0 0 2;
#X connect 15 0 2 0;
#X connect 19 0 4 0;
#X connect 20 0 8 0;
#X connect 22 0 30 0;
#X connect 23 0 35 0;
#X connect 24 0 36 0;
#X connect 25 0 37 0;
#X connect 26 0 0 0;
#X connect 27 0 0 0;
#X connect 28 0 0 0;
#X connect 29 0 0 0;
#X connect 30 0 39 0;
#X connect 35 0 40 0;
#X connect 36 0 41 0;
#X connect 37 0 42 0;
#X connect 38 0 9 0;
#X connect 39 0 26 0;
#X connect 40 0 27 0;
#X connect 41 0 28 0;
#X connect 42 0 29 0;
#X connect 43 0 57 0;
#X connect 44 0 37 0;
#X connect 45 0 51 0;
#X connect 46 0 52 0;
#X connect 47 0 7 0;
#X connect 48 0 30 0;
#X connect 49 0 35 0;
#X connect 50 0 36 0;
#X connect 51 0 19 0;
#X connect 52 0 20 0;
#X connect 53 0 44 0;
#X connect 54 0 55 0;
#X connect 55 0 56 0;
#X connect 55 1 43 0;
#X connect 56 0 43 0;
#X connect 57 0 15 0;
#X connect 58 0 45 0;
#X connect 59 0 46 0;
#X connect 60 0 47 0;
#X connect 60 0 48 0;
#X connect 60 0 49 0;
#X connect 60 0 50 0;
